<svg xmlns="http://www.w3.org/2000/svg" width="19" height="18" viewBox="0 0 19 18" fill="none">
  <path d="M18.9241 7.68087C18.8615 7.20349 18.5916 6.78946 18.1823 6.54246C17.7793 6.29943 17.2964 6.25586 16.8459 6.42371C16.4818 6.56146 16.0638 6.37224 15.8959 5.99698C15.7028 5.56633 15.4661 5.15386 15.1906 4.7707C14.9452 4.43029 14.9911 3.98379 15.2967 3.73204C15.6608 3.43279 15.8643 2.99026 15.8548 2.51919C15.8453 2.04022 15.6189 1.59928 15.2357 1.30794C14.6039 0.828963 13.9152 0.431557 13.1876 0.125181C12.7404 -0.0632244 12.244 -0.0370993 11.8244 0.194056C11.4119 0.422057 11.1317 0.817904 11.0541 1.28259C10.9884 1.67447 10.6258 1.9365 10.2031 1.89297C9.74073 1.84387 9.25942 1.84387 8.79785 1.89297C8.37907 1.93731 8.0125 1.67447 7.94682 1.28259C7.86922 0.817867 7.58897 0.42124 7.17654 0.194056C6.75616 -0.0379157 6.259 -0.0632244 5.81328 0.125181C5.08493 0.431557 4.39618 0.828963 3.76443 1.30794C3.38123 1.59925 3.15561 2.04022 3.14611 2.51837C3.13661 2.99022 3.34008 3.43197 3.70501 3.7336C4.00979 3.98457 4.05574 4.43107 3.81111 4.77148C3.53483 5.15463 3.29811 5.56711 3.10495 5.99776C2.93792 6.37379 2.51911 6.56224 2.14623 6.42129C1.70607 6.25742 1.22235 6.30095 0.818599 6.5432C0.408502 6.78942 0.138567 7.20423 0.0768167 7.68161C0.0261251 8.0743 0 8.47568 0 8.8723C0 9.26893 0.0261251 9.67031 0.0760003 10.0638C0.13853 10.5412 0.408502 10.9552 0.817783 11.2022C1.22075 11.4444 1.70288 11.4888 2.15413 11.3209C2.51751 11.1824 2.93551 11.3716 3.10414 11.7477C3.29729 12.1783 3.53401 12.5908 3.80951 12.9739C4.05492 13.3144 4.00902 13.7609 3.70342 14.0126C3.33926 14.3119 3.13579 14.7544 3.14529 15.2255C3.15479 15.7044 3.3812 16.1454 3.76439 16.4367C4.39614 16.9157 5.08489 17.3131 5.81243 17.6195C6.25971 17.8079 6.75531 17.7817 7.17568 17.5506C7.58815 17.3226 7.86841 16.9267 7.94596 16.4621C8.01169 16.0702 8.37744 15.8081 8.797 15.8517C9.25853 15.9008 9.73988 15.9008 10.2022 15.8517C10.6258 15.8097 10.9876 16.0702 11.0533 16.4621C11.1309 16.9268 11.4111 17.3234 11.8235 17.5506C12.0579 17.6796 12.3144 17.7446 12.574 17.7446C12.7814 17.7446 12.9889 17.7026 13.186 17.6195C13.9135 17.3131 14.6023 16.9149 15.2341 16.4367C15.618 16.1462 15.8436 15.7044 15.8532 15.2262C15.8626 14.7544 15.6592 14.3119 15.295 14.0118C14.9902 13.7609 14.9443 13.3144 15.1889 12.9739C15.4652 12.5908 15.7019 12.1783 15.8951 11.7477C16.0629 11.3716 16.4825 11.184 16.8451 11.3209L16.8538 11.3241C17.2956 11.4896 17.7785 11.4444 18.1814 11.2022C18.5915 10.9552 18.8615 10.5412 18.9232 10.063C18.9739 9.66634 19 9.26656 19 8.8723C19.0001 8.47805 18.9739 8.07827 18.9241 7.68087ZM18.1379 9.96243C18.1079 10.1976 17.9748 10.4026 17.7738 10.5237C17.5798 10.6417 17.3455 10.6622 17.1238 10.5791L17.1191 10.5775C16.3638 10.2981 15.5112 10.6694 15.1732 11.4246C15.0022 11.8062 14.7916 12.1728 14.5469 12.5124C14.0553 13.1964 14.1614 14.1044 14.7932 14.6238C14.9689 14.7686 15.0671 14.9824 15.0623 15.2104C15.0576 15.4455 14.9467 15.6624 14.7567 15.8065C14.1788 16.2451 13.5471 16.61 12.8797 16.8903C12.6588 16.9837 12.4118 16.971 12.206 16.8578C12.0072 16.7478 11.8719 16.557 11.8347 16.333C11.7088 15.5801 11.0644 15.056 10.2988 15.056C10.2402 15.056 10.1801 15.0583 10.1199 15.0631C9.71219 15.1059 9.28788 15.1059 8.88016 15.0631C8.03781 14.9673 7.30078 15.5199 7.1654 16.3306C7.12818 16.5546 6.99281 16.7462 6.79412 16.8555C6.5875 16.9695 6.34127 16.9813 6.11962 16.8879C5.45224 16.6069 4.82049 16.2427 4.24258 15.8041C4.05258 15.6609 3.94174 15.4431 3.93699 15.2088C3.93224 14.9808 4.03039 14.767 4.20696 14.6222C4.83871 14.1028 4.94399 13.1948 4.45236 12.5108C4.20774 12.1704 3.99796 11.8046 3.82696 11.423C3.48811 10.6662 2.63233 10.2965 1.86679 10.5815C1.65542 10.6606 1.42029 10.6409 1.22632 10.5229C1.02522 10.4026 0.892224 10.1975 0.862165 9.96162C0.815445 9.60221 0.791695 9.23486 0.791695 8.87227C0.791695 8.50967 0.815445 8.14236 0.862945 7.78214C0.893041 7.54701 1.02604 7.34198 1.2271 7.22086C1.42026 7.1037 1.65538 7.08233 1.87626 7.16545C2.63229 7.4473 3.48811 7.07758 3.82692 6.31995C3.99792 5.93835 4.20852 5.5726 4.45314 5.23297C4.94477 4.54897 4.83867 3.64094 4.20692 3.12159C4.03117 2.97671 3.93302 2.76296 3.93777 2.53496C3.94252 2.29984 4.05336 2.08293 4.24336 1.93883C4.82127 1.50024 5.45302 1.13608 6.1204 0.855051C6.34127 0.761646 6.5875 0.773521 6.79412 0.887522C6.99284 0.996772 7.12822 1.18837 7.1654 1.41318C7.30078 2.22384 8.03781 2.7709 8.88016 2.68065C9.28707 2.6379 9.71141 2.6379 10.1199 2.68065C10.9575 2.77012 11.6993 2.22387 11.8347 1.41318C11.8719 1.18915 12.0073 0.997551 12.206 0.888301C12.4126 0.773521 12.658 0.761646 12.8805 0.85583C13.5478 1.13686 14.1796 1.50105 14.7575 1.93961C14.9475 2.08289 15.0583 2.30062 15.0631 2.53496C15.0678 2.76296 14.9697 2.97671 14.7931 3.12159C14.1614 3.64094 14.0561 4.54897 14.5477 5.23297C14.7923 5.57338 15.0021 5.93913 15.1731 6.32073C15.512 7.07758 16.3685 7.44808 17.1333 7.16226C17.3454 7.08229 17.579 7.10366 17.7738 7.22086C17.9748 7.34198 18.1079 7.54701 18.1379 7.78214C18.1846 8.14551 18.2084 8.51204 18.2084 8.87227C18.2084 9.23253 18.1847 9.59906 18.1379 9.96243Z" fill="currentColor"/>
  <path d="M9.50003 4.91397C7.3174 4.91397 5.54167 6.6897 5.54167 8.87233C5.54167 11.055 7.3174 12.8307 9.50003 12.8307C11.6827 12.8307 13.4584 11.0549 13.4584 8.87229C13.4584 6.68966 11.6827 4.91397 9.50003 4.91397ZM9.50003 12.039C7.75362 12.039 6.33337 10.6187 6.33337 8.87233C6.33337 7.12592 7.75362 5.70567 9.50003 5.70567C11.2464 5.70567 12.6667 7.12592 12.6667 8.87233C12.6667 10.6187 11.2464 12.039 9.50003 12.039Z" fill="currentColor"/>
</svg>
