<svg xmlns="http://www.w3.org/2000/svg" width="78" height="72" viewBox="0 0 78 72" fill="none">
  <path d="M56.5503 71.7849C56.0096 71.7849 55.4559 71.7167 54.9087 71.5706L5.13611 58.1288C1.72416 57.181 -0.310133 53.6168 0.584699 50.176L6.86462 26.5708C7.09637 25.7041 7.97833 25.201 8.83453 25.4217C9.69396 25.6522 10.2025 26.5449 9.974 27.4083L3.6973 51.007C3.24988 52.7274 4.27347 54.5192 5.98266 54.9964L55.736 68.4317C57.4452 68.8862 59.2091 67.8604 59.6533 66.1465L62.1672 56.7525C62.3989 55.8858 63.2809 55.3697 64.1403 55.6066C64.9997 55.8403 65.5051 56.733 65.2765 57.5965L62.7659 66.9775C62.0094 69.8665 59.4022 71.7849 56.5503 71.7849Z" fill="currentColor"/>
  <path d="M71.1863 52.3087H19.6851C16.1348 52.3087 13.2475 49.397 13.2475 45.8166V6.86417C13.2475 3.28379 16.1348 0.372093 19.6851 0.372093H71.1863C74.7366 0.372093 77.6239 3.28379 77.6239 6.86417V45.8166C77.6239 49.397 74.7366 52.3087 71.1863 52.3087ZM19.6851 3.61813C17.9116 3.61813 16.4663 5.0756 16.4663 6.86417V45.8166C16.4663 47.6052 17.9116 49.0626 19.6851 49.0626H71.1863C72.9598 49.0626 74.4051 47.6052 74.4051 45.8166V6.86417C74.4051 5.0756 72.9598 3.61813 71.1863 3.61813H19.6851Z" fill="currentColor"/>
  <path d="M29.3416 23.0943C25.7913 23.0943 22.904 20.1826 22.904 16.6023C22.904 13.0219 25.7913 10.1102 29.3416 10.1102C32.892 10.1102 35.7793 13.0219 35.7793 16.6023C35.7793 20.1826 32.892 23.0943 29.3416 23.0943ZM29.3416 13.3562C27.5681 13.3562 26.1228 14.8137 26.1228 16.6023C26.1228 18.3908 27.5681 19.8483 29.3416 19.8483C31.1152 19.8483 32.5605 18.3908 32.5605 16.6023C32.5605 14.8137 31.1152 13.3562 29.3416 13.3562Z" fill="currentColor"/>
  <path d="M15.0823 48.8354C14.6703 48.8354 14.2582 48.6764 13.9428 48.3615C13.3151 47.7285 13.3151 46.6995 13.9428 46.0665L29.1453 30.7355C30.9671 28.8983 34.1505 28.8983 35.9724 30.7355L40.4981 35.2994L53.0257 20.1404C53.9366 19.04 55.2757 18.4006 56.7016 18.3876H56.737C58.1469 18.3876 59.4827 19.0043 60.4032 20.0853L77.2377 39.8926C77.8171 40.571 77.7398 41.5967 77.0639 42.181C76.3911 42.7653 75.3772 42.6907 74.7946 42.0057L57.9602 22.1984C57.6479 21.8349 57.2166 21.6336 56.737 21.6336C56.4023 21.6044 55.8132 21.8381 55.501 22.2179L41.8435 38.7435C41.5538 39.0941 41.1322 39.305 40.6783 39.3245C40.2212 39.357 39.7867 39.1752 39.468 38.8506L33.6967 33.0305C33.0883 32.4202 32.0293 32.4202 31.421 33.0305L16.2185 48.3615C15.9063 48.6764 15.4943 48.8354 15.0823 48.8354Z" fill="currentColor"/>
</svg>
