<svg xmlns="http://www.w3.org/2000/svg" width="17" height="18" viewBox="0 0 17 18" fill="none">
  <path d="M10.1337 0.0952873C8.96404 0.321453 8.06228 0.849171 7.08909 1.87634C6.49982 2.49829 6.19626 2.9035 5.99984 3.34641C5.5802 4.26049 5.357 5.29708 5.357 6.35251V7.25717L2.6785 10.0842L0 12.9207V15.1918C0 17.4629 0 17.4723 0.21428 17.7361L0.42856 18H2.63386H4.83915L5.05343 17.7361C5.24093 17.5006 5.26771 17.3875 5.26771 16.6336V15.8043L6.1159 15.7666C7.25873 15.7289 7.34801 15.6347 7.41051 14.4379L7.45515 13.5709L8.27656 13.5238L9.10689 13.4767L9.64259 12.9113L10.1872 12.3459L11.0979 12.3365C12.8389 12.3176 14.1871 11.7428 15.3032 10.5554C16.0353 9.78268 16.4281 9.11361 16.7674 8.13356C16.9727 7.53046 16.9995 7.29487 16.9995 6.22058C17.0085 4.83533 16.8924 4.28876 16.3656 3.2239C15.9996 2.49829 15.0978 1.48055 14.3746 0.9811C13.1425 0.142406 11.5979 -0.177994 10.1337 0.0952873ZM12.3568 1.80095C13.5443 2.12135 14.5353 2.98831 15.0621 4.16625C15.6692 5.49497 15.6692 6.85196 15.0621 8.1901C14.2139 10.0748 12.3568 10.9983 10.1604 10.612L9.7408 10.5366L9.14261 11.1774L8.53548 11.8276L7.19623 11.8464L5.84805 11.8747L5.82127 12.9867L5.79448 14.0892H4.73201H3.66061V15.2201V16.3509H2.58921H1.51782V14.9562V13.5615L4.29453 10.6496L7.07123 7.73777L6.97302 6.91793C6.61589 4.00605 8.45513 1.69729 11.1515 1.6596C11.5086 1.65017 12.0532 1.71614 12.3568 1.80095Z" fill="currentColor"/>
  <path d="M11.7855 4.06258C10.9998 4.41125 11.1158 5.82478 11.9462 6.08864C12.6961 6.32423 13.3033 5.84363 13.3033 5.02378C13.3033 4.63742 13.2586 4.51491 13.0444 4.27932C12.9015 4.12855 12.7319 3.99662 12.6604 3.99662C12.214 3.9495 12.0176 3.96835 11.7855 4.06258Z" fill="currentColor"/>
</svg>
