<svg width="17" height="19" viewBox="0 0 17 19" fill="none" xmlns="http://www.w3.org/2000/svg">
  <path d="M4.65675 0H1.34324C0.601519 0 0 0.501189 0 1.1192V17.8807C0 18.4988 0.601519 19 1.34324 19H4.65675C5.39848 19 6 18.4988 6 17.8807V1.1192C6.00004 0.501189 5.39852 0 4.65675 0Z" fill="currentColor"/>
  <path d="M15.469 0H12.1555C11.4138 0 10.8123 0.501189 10.8123 1.1192V17.8807C10.8123 18.4988 11.4138 19 12.1555 19H15.469C16.2107 19 16.8123 18.4988 16.8123 17.8807V1.1192C16.8123 0.501189 16.2107 0 15.469 0Z" fill="currentColor"/>
</svg>
