<svg xmlns="http://www.w3.org/2000/svg" width="14" height="13" viewBox="0 0 14 13" fill="none">
  <path d="M13.0427 12.1372L9.84666 8.96462C10.6411 8.0163 11.1197 6.79854 11.1197 5.47168C11.1197 2.45458 8.64707 0 5.60786 0C2.56857 0 0.0959473 2.45458 0.0959473 5.47168C0.0959473 8.48857 2.56857 10.943 5.60786 10.943C6.94444 10.943 8.17124 10.4679 9.12657 9.67931L12.3227 12.8519C12.4221 12.9507 12.5524 13 12.6827 13C12.813 13 12.9433 12.9507 13.0428 12.8519C13.2416 12.6546 13.2416 12.3346 13.0427 12.1372ZM1.11427 5.47168C1.11427 3.01197 3.13007 1.01087 5.60786 1.01087C8.08557 1.01087 10.1013 3.01197 10.1013 5.47168C10.1013 7.93118 8.08557 9.93209 5.60786 9.93209C3.13007 9.93209 1.11427 7.93118 1.11427 5.47168Z" fill="currentColor"/>
</svg>
