<svg xmlns="http://www.w3.org/2000/svg" width="23" height="16" viewBox="0 0 23 16" fill="none">
  <path fill-rule="evenodd" clip-rule="evenodd" d="M7.53204 13.9999C7.53204 13.4436 7.97802 13 8.51911 13C9.06019 13 9.50617 13.4436 9.50617 13.9999C9.50617 14.5563 9.06019 14.9999 8.51911 14.9999C7.97802 14.9999 7.53204 14.5563 7.53204 13.9999ZM6.5831 14.452L0.592346 14.452C0.316204 14.452 0.0923462 14.2281 0.0923462 13.952C0.0923462 13.6758 0.316204 13.452 0.592346 13.452L6.60766 13.452C6.84399 12.6159 7.60763 12 8.51911 12C9.4808 12 10.2779 12.6856 10.4647 13.5921C10.5312 13.5594 10.606 13.541 10.6851 13.541L22.5001 13.541C22.7763 13.541 23.0001 13.7649 23.0001 14.041C23.0001 14.3172 22.7763 14.541 22.5001 14.541L10.6851 14.541C10.5994 14.541 10.5187 14.5194 10.4481 14.4814C10.2343 15.3511 9.45459 15.9999 8.51911 15.9999C7.57311 15.9999 6.78636 15.3364 6.5831 14.452Z" fill="currentColor"/>
  <path fill-rule="evenodd" clip-rule="evenodd" d="M18.1297 8.00005C18.1297 8.55639 17.6837 9 17.1426 9C16.6015 9 16.1556 8.55639 16.1556 8.00005C16.1556 7.44372 16.6015 7.00011 17.1426 7.00011C17.6837 7.00011 18.1297 7.44372 18.1297 8.00005ZM19.1008 8.3414C18.9401 9.2806 18.1277 10 17.1426 10C16.127 10 15.295 9.2353 15.1714 8.25343C15.1698 8.25345 15.1683 8.25345 15.1667 8.25345L0.499817 8.25345C0.223675 8.25345 -0.000183153 8.0296 -0.000183105 7.75345C-0.000183058 7.47731 0.223675 7.25345 0.499817 7.25345L15.1667 7.25345C15.2102 7.25345 15.2523 7.259 15.2925 7.2694C15.5819 6.52784 16.2989 6.00011 17.1426 6.00011C18.0179 6.00011 18.7568 6.56808 19.0234 7.35354C19.0577 7.34613 19.0932 7.34223 19.1297 7.34223L22.4075 7.34223C22.6837 7.34223 22.9075 7.56609 22.9075 7.84223C22.9075 8.11837 22.6837 8.34223 22.4075 8.34223L19.1297 8.34223C19.12 8.34223 19.1104 8.34194 19.1008 8.3414Z" fill="currentColor"/>
  <path fill-rule="evenodd" clip-rule="evenodd" d="M4.87015 1.99996C4.87015 1.44363 5.31613 1.00002 5.85721 1.00002C6.39829 1.00002 6.84427 1.44363 6.84427 1.99996C6.84427 2.5563 6.39829 2.99991 5.85721 2.99991C5.31613 2.99991 4.87015 2.55629 4.87015 1.99996ZM3.92063 2.4495C3.90404 2.45116 3.88722 2.45201 3.8702 2.45201L0.592346 2.45201C0.316204 2.45201 0.0923462 2.22816 0.0923462 1.95201C0.0923462 1.67587 0.316204 1.45201 0.592346 1.45201L3.8702 1.45201C3.89535 1.45201 3.92007 1.45387 3.94423 1.45746C4.17878 0.618624 4.94375 1.50977e-05 5.85721 1.52588e-05C6.80136 1.54253e-05 7.58688 0.660886 7.79202 1.54273C7.80561 1.54162 7.81935 1.54106 7.83322 1.54106L22.5001 1.54106C22.7763 1.54106 23.0001 1.76491 23.0001 2.04106C23.0001 2.3172 22.7763 2.54106 22.5001 2.54106H7.83322C7.81237 2.54106 7.79181 2.53978 7.77163 2.5373C7.53878 3.37876 6.77254 3.99991 5.85721 3.99991C4.91032 3.99991 4.12298 3.33519 3.92063 2.4495Z" fill="currentColor"/>
</svg>
