<svg xmlns="http://www.w3.org/2000/svg" width="17" height="19" viewBox="0 0 17 19">
  <path d="M10.3214 11.2812H6.67857C2.99018 11.2812 0 14.2055 0 17.8125C0 18.4682 0.543772 19 1.21429 19H15.7857C16.4562 19 17 18.4682 17 17.8125C17 14.2055 14.0098 11.2812 10.3214 11.2812ZM1.859 17.2188C2.15877 14.8771 4.20446 13.0625 6.67857 13.0625H10.3214C12.794 13.0625 14.8408 14.879 15.1406 17.2188H1.859ZM8.5 9.5C11.1824 9.5 13.3571 7.37326 13.3571 4.75C13.3571 2.12674 11.1824 0 8.5 0C5.81757 0 3.64286 2.12674 3.64286 4.75C3.64286 7.37363 5.81719 9.5 8.5 9.5ZM8.5 1.78125C10.1738 1.78125 11.5357 3.11311 11.5357 4.75C11.5357 6.38689 10.1738 7.71875 8.5 7.71875C6.82618 7.71875 5.46429 6.38652 5.46429 4.75C5.46429 3.11311 6.82656 1.78125 8.5 1.78125Z" fill="currentColor"/>
</svg>
