<svg xmlns="http://www.w3.org/2000/svg" width="200" height="36" viewBox="0 0 200 36" fill="none">
  <path d="M48.2761 10.297V6.96639C48.2761 5.68797 47.3154 5.04876 46.3878 5.04876C45.4602 5.04876 44.4664 5.68797 44.4664 6.96639V10.297H43.1082C42.3131 10.297 41.6174 11.0035 41.6174 11.8109C41.6174 12.652 42.3131 13.3249 43.1082 13.3249H44.4664V26.0081C44.4664 27.2866 45.4602 27.9594 46.3878 27.9594C47.3154 27.9594 48.2761 27.2866 48.2761 26.0081V13.3249H50.7607C51.5557 13.3249 52.2514 12.652 52.2514 11.8109C52.2514 10.9699 51.5557 10.297 50.7607 10.297H48.2761Z" fill="#363636"/>
  <path d="M71.6342 18.0685C71.1042 13.0894 67.7583 9.92694 62.9216 9.92694C57.7869 9.92694 54.1428 13.8631 54.1428 19.0441C54.1428 24.4942 57.9525 28.094 63.1867 28.094C66.3338 28.094 68.6527 26.5464 70.0772 24.7634C70.3754 24.3933 70.5079 24.0232 70.5079 23.6531C70.5079 22.7448 69.7128 21.9374 68.8846 21.9374C68.454 21.9374 67.9902 22.1392 67.6258 22.6439C66.6651 23.9559 65.2737 24.8979 63.2198 24.8979C60.3708 24.8979 57.9856 22.9467 57.8862 20.1207H69.7791C71.0711 20.1207 71.7667 19.4142 71.6342 18.0685ZM62.9216 13.0557C65.7706 13.0557 67.7583 14.9733 67.9571 17.5302H57.9194C58.1181 14.9397 60.172 13.0557 62.9216 13.0557Z" fill="#363636"/>
  <path d="M90.4479 10.1624C89.4872 10.1624 88.5265 10.8017 88.5265 12.0801V13.4594C87.2345 11.2054 84.7831 9.92694 82.2322 9.92694C76.9649 9.92694 73.5859 13.7958 73.5859 18.9768C73.5859 24.0232 76.8324 28.094 82.0335 28.094C85.1475 28.094 87.5658 26.5801 88.5265 24.1914V26.0418C88.5265 27.2866 89.4872 27.9594 90.4479 27.9594C91.4086 27.9594 92.3362 27.2866 92.3362 26.0418V12.0801C92.3362 10.8017 91.3755 10.1624 90.4479 10.1624ZM82.9942 24.6288C79.7477 24.6288 77.4287 22.3074 77.4287 19.0105C77.4287 15.7471 79.7477 13.4258 82.9942 13.4258C86.2076 13.4258 88.4934 15.8481 88.4934 19.0105C88.4934 22.2065 86.2076 24.6288 82.9942 24.6288Z" fill="#363636"/>
  <path d="M114.969 9.92694C112.418 9.92694 110.596 11.0372 109.602 12.9211C108.642 10.8353 106.82 9.92694 104.766 9.92694C102.646 9.92694 101.022 10.9026 100.128 12.652V11.9791C100.128 10.7344 99.1672 10.1288 98.2397 10.1288C97.2789 10.1288 96.2851 10.768 96.2851 12.0464V26.0081C96.2851 27.2529 97.2458 27.9258 98.2065 27.9258C99.1672 27.9258 100.128 27.2529 100.128 26.0081V17.7657C100.161 14.8388 101.519 13.2576 103.639 13.2576C105.296 13.2576 106.886 14.2668 106.886 17.5638V25.9408C106.886 27.2529 107.847 27.9594 108.807 27.9594C109.768 27.9594 110.729 27.2529 110.729 25.9408V17.7657C110.729 14.8724 112.12 13.2576 114.24 13.2576C115.897 13.2576 117.487 14.2668 117.487 17.5638V25.9408C117.487 27.2529 118.448 27.9594 119.408 27.9594C120.369 27.9594 121.33 27.2529 121.33 25.9408V16.9583C121.33 12.0464 118.315 9.92694 114.969 9.92694Z" fill="#363636"/>
  <path d="M140.981 10.1288C140.02 10.1288 139.059 10.8017 139.059 12.1474V13.4594C137.767 11.2054 135.316 9.92694 132.765 9.92694C127.498 9.92694 124.119 13.7958 124.119 18.9768C124.119 24.0232 127.365 28.094 132.566 28.094C135.68 28.094 138.098 26.5801 139.059 24.1914V26.0754C139.059 30.3144 137.038 32.6357 133.096 32.6357C130.015 32.6357 128.392 31.2227 127.332 31.2227C126.404 31.2227 125.841 31.8956 125.841 32.6694C125.841 33.2749 126.173 33.9142 126.901 34.3515C128.491 35.2935 130.91 36 133.361 36C139.225 36 142.836 32.2993 142.836 26.0754V12.0464C142.836 10.768 141.908 10.1288 140.981 10.1288ZM133.527 24.6288C130.28 24.6288 127.961 22.3074 127.961 19.0105C127.961 15.7471 130.28 13.4258 133.527 13.4258C136.74 13.4258 139.026 15.8481 139.026 19.0105C139.026 22.2065 136.74 24.6288 133.527 24.6288Z" fill="#363636"/>
  <path d="M163.382 18.0685C162.852 13.0894 159.506 9.92694 154.67 9.92694C149.535 9.92694 145.891 13.8631 145.891 19.0441C145.891 24.4942 149.701 28.094 154.935 28.094C158.082 28.094 160.401 26.5464 161.825 24.7634C162.124 24.3933 162.256 24.0232 162.256 23.6531C162.256 22.7448 161.461 21.9374 160.633 21.9374C160.202 21.9374 159.738 22.1392 159.374 22.6439C158.413 23.9559 157.022 24.8979 154.968 24.8979C152.119 24.8979 149.734 22.9467 149.634 20.1207H161.527C162.819 20.1207 163.515 19.4142 163.382 18.0685ZM154.67 13.0557C157.519 13.0557 159.506 14.9733 159.705 17.5302H149.668C149.866 14.9397 151.92 13.0557 154.67 13.0557Z" fill="#363636"/>
  <path d="M168.344 8.11024C169.57 8.11024 170.564 7.10096 170.564 5.85618C170.564 4.6114 169.57 3.56848 168.344 3.56848C167.118 3.56848 166.091 4.57776 166.091 5.85618C166.091 7.10096 167.118 8.11024 168.344 8.11024ZM166.423 26.0081C166.423 27.2866 167.416 27.9594 168.344 27.9594C169.272 27.9594 170.232 27.2866 170.232 26.0081V12.0464C170.232 10.768 169.272 10.1288 168.344 10.1288C167.383 10.1288 166.423 10.768 166.423 12.0464V26.0081Z" fill="#363636"/>
  <path d="M180.581 28.094C184.689 28.094 187.604 26.21 187.604 22.7448C187.604 16.2518 177.302 18.2703 177.302 14.8388C177.302 13.6276 178.594 12.8875 180.151 12.8875C181.575 12.8875 182.768 13.5604 183.762 14.6706C184.325 15.3098 184.888 15.5453 185.385 15.5453C186.213 15.5453 186.843 14.8051 186.843 13.9304C186.843 13.4931 186.71 12.9884 186.346 12.5511C185.12 10.9699 182.668 9.96059 180.184 9.96059C176.573 9.96059 173.625 11.8782 173.625 15.1752C173.625 21.3654 183.795 19.5151 183.795 22.9803C183.795 24.2924 182.536 25.0661 180.615 25.0661C178.792 25.0661 177.633 24.326 176.705 22.913C176.275 22.2402 175.745 21.971 175.215 21.971C174.287 21.971 173.426 22.8121 173.426 23.8214C173.426 24.2251 173.558 24.6288 173.856 25.0661C175.182 26.9501 177.401 28.094 180.581 28.094Z" fill="#363636"/>
  <path d="M196.024 10.297V6.96639C196.024 5.68797 195.064 5.04876 194.136 5.04876C193.208 5.04876 192.215 5.68797 192.215 6.96639V10.297H190.856C190.061 10.297 189.366 11.0035 189.366 11.8109C189.366 12.652 190.061 13.3249 190.856 13.3249H192.215V26.0081C192.215 27.2866 193.208 27.9594 194.136 27.9594C195.064 27.9594 196.024 27.2866 196.024 26.0081V13.3249H198.509C199.304 13.3249 200 12.652 200 11.8109C200 10.9699 199.304 10.297 198.509 10.297H196.024Z" fill="#363636"/>
  <path d="M0 11.8902C0 10.5942 1.03458 9.5435 2.3108 9.5435C3.58703 9.5435 4.62161 10.5942 4.62161 11.8902V18.1482C4.62161 19.4442 3.58703 20.4949 2.3108 20.4949C1.03458 20.4949 0 19.4442 0 18.1482V11.8902Z" fill="#363636"/>
  <path d="M24.6484 9.54346C24.6484 8.2474 25.683 7.19673 26.9592 7.19673C28.2355 7.19673 29.27 8.2474 29.27 9.54346V19.7126C29.27 21.0087 28.2355 22.0593 26.9592 22.0593C25.683 22.0593 24.6484 21.0087 24.6484 19.7126V9.54346Z" fill="#363636"/>
  <path d="M6.16187 5.94494C6.16187 4.64888 7.19645 3.59822 8.47267 3.59822C9.74889 3.59822 10.7835 4.64889 10.7835 5.94495V25.501C10.7835 26.7971 9.74889 27.8477 8.47267 27.8477C7.19645 27.8477 6.16187 26.7971 6.16187 25.501V5.94494Z" fill="#03A473"/>
  <path d="M12.3242 2.34672C12.3242 1.05066 13.3588 0 14.635 0C15.9112 0 16.9458 1.05066 16.9458 2.34673V21.9028C16.9458 23.1988 15.9112 24.2495 14.635 24.2495C13.3588 24.2495 12.3242 23.1988 12.3242 21.9028V2.34672Z" fill="#363636"/>
  <path d="M18.4863 11.8902C18.4863 10.5941 19.5209 9.54347 20.7971 9.54347C22.0734 9.54347 23.1079 10.5941 23.1079 11.8902V31.4462C23.1079 32.7423 22.0734 33.793 20.7971 33.793C19.5209 33.793 18.4863 32.7423 18.4863 31.4462V11.8902Z" fill="#03A473"/>
</svg>
